<?xml version="1.0" standalone="no"?>
<!DOCTYPE svg PUBLIC "-//W3C//DTD SVG 20010904//EN"
 "http://www.w3.org/TR/2001/REC-SVG-20010904/DTD/svg10.dtd">
<svg version="1.0" xmlns="http://www.w3.org/2000/svg"
 width="730.000000pt" height="730.000000pt" viewBox="0 0 730.000000 730.000000"
 preserveAspectRatio="xMidYMid meet">
<metadata>
Created by potrace 1.14, written by Peter Selinger 2001-2017
</metadata>
<g transform="translate(0.000000,730.000000) scale(0.100000,-0.100000)"
fill="#000000" stroke="none">
<path d="M3490 7175 c-336 -89 -574 -296 -696 -607 -12 -32 -21 -58 -19 -58 3
0 0 -12 -6 -27 -6 -16 -13 -37 -15 -48 -2 -11 -6 -31 -9 -45 -19 -90 -25 -528
-11 -850 12 -282 8 -362 -30 -546 -2 -12 -10 -40 -18 -63 -9 -22 -13 -41 -9
-41 3 0 1 -6 -5 -12 -6 -7 -11 -17 -12 -23 -9 -43 -32 -98 -91 -220 -55 -115
-98 -194 -109 -205 -3 -3 -32 -43 -63 -90 -32 -47 -78 -112 -103 -145 -24 -33
-50 -70 -56 -82 -6 -13 -14 -23 -18 -23 -4 0 -13 -13 -20 -29 -6 -16 -18 -32
-26 -35 -8 -3 -14 -10 -14 -16 0 -9 -36 -66 -50 -80 -3 -3 -55 -79 -114 -170
-158 -239 -173 -263 -237 -384 -46 -87 -112 -246 -103 -246 3 0 -1 -10 -7 -22
-11 -20 -45 -146 -54 -198 -2 -14 -7 -36 -10 -50 -10 -47 -19 -135 -19 -197
-1 -35 -3 -63 -6 -63 -3 0 -4 -37 -3 -82 2 -76 1 -83 -23 -107 -15 -14 -56
-71 -92 -126 -35 -55 -78 -117 -94 -138 -31 -38 -99 -85 -137 -92 -12 -2 -25
-6 -30 -10 -5 -3 -64 -16 -130 -30 -304 -62 -370 -143 -354 -430 9 -162 9
-414 -1 -459 -4 -22 -12 -51 -18 -65 -46 -115 -56 -229 -27 -305 43 -116 142
-168 486 -251 81 -19 159 -38 173 -42 14 -3 30 -7 35 -8 6 -2 37 -8 70 -16 33
-7 65 -14 70 -15 30 -7 72 -15 90 -18 68 -11 108 -21 170 -41 61 -21 232 -84
275 -102 8 -3 17 -7 20 -7 3 -1 19 -6 35 -13 49 -18 208 -64 240 -68 6 -1 31
-5 58 -9 95 -16 153 -14 272 8 63 12 158 69 224 135 73 73 114 121 104 121 -3
0 1 8 9 18 19 21 58 101 58 118 0 26 32 43 117 63 132 30 197 35 438 36 235 0
289 -5 436 -36 52 -11 103 -22 115 -24 34 -5 200 -62 263 -90 50 -23 60 -31
65 -58 21 -114 118 -230 241 -287 78 -36 111 -47 170 -57 49 -8 231 -9 265 -1
72 17 89 23 140 47 30 14 57 28 60 31 3 3 24 20 48 36 23 17 66 54 95 81 29
27 69 60 88 73 19 13 41 32 50 42 9 10 19 18 23 18 4 0 33 21 64 47 32 27 71
57 86 68 15 11 37 28 49 38 12 10 34 26 50 35 15 9 27 20 27 24 0 4 6 8 14 8
8 0 16 3 18 8 2 4 35 28 73 53 483 318 526 350 576 418 42 57 58 100 54 153
-5 80 -59 153 -205 278 -136 116 -167 146 -196 185 -56 77 -79 138 -98 265
-19 120 -39 178 -82 234 -46 61 -120 97 -201 99 -16 0 -16 17 -3 52 5 14 12
38 15 53 3 15 7 37 9 48 21 105 26 157 26 269 -1 164 -15 255 -64 405 -54 169
-171 412 -282 588 -19 29 -34 57 -34 62 0 6 -4 10 -10 10 -5 0 -10 4 -10 9 0
5 -47 80 -105 167 -58 87 -105 162 -105 166 0 4 -3 8 -8 8 -4 0 -18 18 -32 40
-14 22 -28 40 -32 40 -4 0 -9 8 -13 19 -3 10 -13 28 -23 38 -43 50 -275 393
-266 393 3 0 -8 19 -24 43 -68 100 -167 333 -177 420 -3 23 -7 49 -10 57 -15
54 -24 248 -30 595 -5 379 -12 450 -57 635 -11 47 -25 91 -30 98 -6 6 -7 12
-3 12 4 0 2 7 -5 15 -7 8 -10 15 -7 15 9 0 -79 166 -115 215 -80 111 -271 271
-340 284 -4 1 -29 11 -55 22 -90 39 -219 61 -373 64 -124 2 -157 0 -230 -20z"/>
</g>
</svg>
